<mxfile host="app.diagrams.net" modified="2023-09-22T17:08:07.199Z" agent="Mozilla/5.0 (Windows NT 10.0; Win64; x64) AppleWebKit/537.36 (KHTML, like Gecko) Chrome/117.0.0.0 Safari/537.36" version="21.8.0" etag="osiy16wGCcRkz1CEVdG6" type="github">
  <diagram name="Page-1" id="Qn8HBY7xU7zQtqkpy_Nf">
    <mxGraphModel>
      <root>
        <mxCell id="0" />
        <mxCell id="1" parent="0" />
      </root>
    </mxGraphModel>
  </diagram>
</mxfile>
